<svg width="1451" height="3152" viewBox="0 0 1451 3152" fill="none" xmlns="http://www.w3.org/2000/svg">
<path d="M1526.01 3902.87C1404.79 3923.25 1225.92 3936.66 1023.44 3886.77C492.052 3755.85 129.334 3270.57 26.4347 2800.77C-3.84917 2662.52 -106.889 2192.22 180.457 1851.5C340.971 1661.16 673.124 1452.26 918.103 1577.98C1041.56 1641.34 1134.63 1785.37 1128.85 1923.9C1116.48 2221.1 648.923 2494.94 302.036 2406.57C-186.743 2282.07 -347.934 1460.83 -144.983 1272.01C-83.0144 1214.36 -17.2165 1152.79 319.116 1241.68C643.016 1327.27 844.052 1154.78 1019.01 1209.13C1210.71 1268.66 1274.88 1505.63 1405.75 1571.77C1444.11 1591.16 1490.24 1587.31 1525.33 1562.57C1548.51 1546.2 1565.69 1522.8 1574.3 1495.89C1582.91 1468.98 1582.48 1440.02 1573.07 1413.38C1381.63 868.917 371.617 469.522 10.5456 377.992C10.5456 377.992 83.897 312.299 200.012 258.841C394.114 169.478 581.771 204.885 646.086 213.111C827.707 236.341 1110.49 224.5 1550.33 65.5625" stroke="#0D1A61" stroke-opacity="0.3" stroke-width="139.033" stroke-linejoin="bevel"/>
</svg>
