<svg width="1451" height="3992" viewBox="0 0 1451 3992" fill="none" xmlns="http://www.w3.org/2000/svg">
<path d="M-63.0432 3903.3C58.1739 3923.68 237.052 3937.1 439.524 3887.21C970.915 3756.29 1333.63 3271.01 1436.53 2801.2C1466.82 2662.96 1569.86 2192.66 1282.51 1851.93C1122 1661.6 789.843 1452.7 544.863 1578.42C421.405 1641.77 328.335 1785.81 334.114 1924.34C346.489 2221.54 814.044 2495.38 1160.93 2407.01C1649.71 2282.51 1810.9 1461.26 1607.95 1272.45C1545.98 1214.79 1480.18 1153.22 1143.85 1242.11C819.951 1327.71 618.915 1155.22 443.96 1209.57C252.252 1269.1 188.088 1506.07 57.2166 1572.21C18.8539 1591.6 -27.2723 1587.75 -62.366 1563.01C-85.5394 1546.64 -102.725 1523.23 -111.334 1496.33C-119.944 1469.42 -119.512 1440.46 -110.103 1413.82C81.3362 869.355 1091.35 469.96 1452.42 378.43C1452.42 378.43 1379.07 312.737 1262.95 259.279C1068.85 169.915 881.196 205.322 816.881 213.549C635.26 236.779 352.478 224.938 -87.3613 66" stroke="#0D1A61" stroke-opacity="0.3" stroke-width="139.033" stroke-linejoin="bevel"/>
</svg>
