<svg width="1440" height="3022" viewBox="0 0 1440 3022" fill="none" xmlns="http://www.w3.org/2000/svg">
<path d="M-62.5692 2938.49C57.7289 2953.74 235.251 2963.77 436.188 2926.45C963.551 2828.51 1323.52 2465.49 1425.64 2114.05C1455.69 2010.64 1557.95 1658.82 1272.78 1403.94C1113.49 1261.56 783.851 1105.29 540.729 1199.34C418.206 1246.73 325.842 1354.48 331.577 1458.1C343.858 1680.43 807.869 1885.28 1152.13 1819.17C1637.2 1726.04 1797.17 1111.7 1595.76 970.452C1534.26 927.324 1468.96 881.268 1135.18 947.761C813.731 1011.79 614.219 882.758 440.59 923.416C250.336 967.947 186.659 1145.21 56.7789 1194.69C18.707 1209.19 -27.0695 1206.32 -61.8972 1187.81C-84.8949 1175.56 -101.95 1158.06 -110.494 1137.93C-119.039 1117.8 -118.61 1096.14 -109.273 1076.21C80.7157 668.916 1083.07 370.145 1441.41 301.675C1441.41 301.675 1368.61 252.533 1253.38 212.543C1060.75 145.694 874.512 172.18 810.684 178.334C630.44 195.712 349.802 186.854 -86.703 67.959" stroke="#B94B3C" stroke-width="139.033" stroke-linejoin="bevel"/>
<path d="M-62.5692 2938.49C57.7289 2953.74 235.251 2963.77 436.188 2926.45C963.551 2828.51 1323.52 2465.49 1425.64 2114.05C1455.69 2010.64 1557.95 1658.82 1272.78 1403.94C1113.49 1261.56 783.851 1105.29 540.729 1199.34C418.206 1246.73 325.842 1354.48 331.577 1458.1C343.858 1680.43 807.869 1885.28 1152.13 1819.17C1637.2 1726.04 1797.17 1111.7 1595.76 970.452C1534.26 927.324 1468.96 881.268 1135.18 947.761C813.731 1011.79 614.219 882.758 440.59 923.416C250.336 967.947 186.659 1145.21 56.7789 1194.69C18.707 1209.19 -27.0695 1206.32 -61.8972 1187.81C-84.8949 1175.56 -101.95 1158.06 -110.494 1137.93C-119.039 1117.8 -118.61 1096.14 -109.273 1076.21C80.7157 668.916 1083.07 370.145 1441.41 301.675C1441.41 301.675 1368.61 252.533 1253.38 212.543C1060.75 145.694 874.512 172.18 810.684 178.334C630.44 195.712 349.802 186.854 -86.703 67.959" stroke="black" stroke-opacity="0.2" stroke-width="139.033" stroke-linejoin="bevel"/>
</svg>
