<svg width="160" height="182" viewBox="0 0 160 182" fill="none" xmlns="http://www.w3.org/2000/svg">
<g opacity="0.3">
<path d="M145.625 138.462C116.219 157.476 104.065 139.545 92.4922 134.014C92.1477 120.431 93.4221 97.286 101.276 113.37C109.13 129.455 124.084 142.701 145.625 138.462Z" fill="white"/>
<path fill-rule="evenodd" clip-rule="evenodd" d="M75.7021 19.0589C96.2288 19.2431 113.814 31.6194 126.454 47.2623C138.914 62.6834 147.317 82.1585 141.93 101.024C136.763 119.123 118.679 129.473 100.856 136.92C84.17 143.891 65.6094 147.183 49.1128 139.802C32.3233 132.291 21.6344 116.681 16.9394 99.3757C12.021 81.2471 12.5622 61.6407 23.756 46.3411C35.73 29.9751 54.9726 18.873 75.7021 19.0589Z" fill="white"/>
</g>
</svg>
