<svg width="275" height="146" viewBox="0 0 275 146" fill="none" xmlns="http://www.w3.org/2000/svg">
<path fill-rule="evenodd" clip-rule="evenodd" d="M94.4643 0.000159808C119.96 0.0426728 137.089 16.1675 155.733 28.2095C175.471 40.9579 199.732 52.1624 203.828 70.6365C208.425 91.3682 199.436 113.665 177.958 128.454C156.524 143.212 124.679 146.516 94.4643 145.938C65.2234 145.379 34.6928 140.608 15.4596 125.345C-2.90106 110.775 -4.93357 63.1508 9.50342 44.0316C34.0031 11.5873 64.5293 -0.0497562 94.4643 0.000159808Z" fill="#DB866F"/>
<path d="M49.8688 37.4881C49.9768 37.4881 50.4224 37.4881 51.2056 37.4881C51.9888 37.4881 52.8868 37.4949 53.8996 37.5084C54.9259 37.5084 55.8508 37.5151 56.6746 37.5286C62.049 37.6097 65.9313 38.879 68.3214 41.3366C70.7115 43.7808 71.9066 47.3187 71.9066 51.9504C71.9066 56.8117 70.6305 60.4982 68.0783 63.0099C65.5397 65.5215 61.6101 66.7773 56.2897 66.7773H49.8688V37.4881ZM53.7173 40.7087V63.5567H56.2897C58.7069 63.5567 60.7864 63.1854 62.5284 62.4427C64.2703 61.6865 65.6072 60.4644 66.5389 58.7765C67.4842 57.0885 67.9568 54.8334 67.9568 52.0112C67.9568 49.189 67.4977 46.9541 66.5794 45.3067C65.6747 43.6592 64.3648 42.4844 62.6499 41.7823C60.9349 41.0666 58.8689 40.7087 56.4518 40.7087H53.7173ZM80.6309 37.5084V41.3974H76.8027V37.5084H80.6309ZM80.5499 45.8333V66.7773H76.9242V45.8333H80.5499ZM93.8858 67.1825C92.414 67.1825 91.0568 66.9529 89.8145 66.4938C88.5722 66.0346 87.5324 65.3325 86.6952 64.3872C85.8715 63.4285 85.3583 62.1929 85.1558 60.6805H88.5587C88.8288 61.9093 89.4432 62.8343 90.4019 63.4555C91.3742 64.0766 92.5287 64.3872 93.8656 64.3872C95.27 64.3872 96.4043 64.1239 97.2685 63.5973C98.1327 63.0706 98.5648 62.2604 98.5648 61.1666C98.5648 59.6947 97.6398 58.736 95.7898 58.2904L91.4552 57.2168C89.7538 56.8117 88.3966 56.177 87.3839 55.3128C86.3846 54.4486 85.885 53.24 85.885 51.6871C85.8715 49.8506 86.5332 48.3517 87.87 47.1904C89.2069 46.0156 91.2054 45.4282 93.8656 45.4282C96.1342 45.4282 97.9639 45.9413 99.3548 46.9676C100.759 47.9939 101.488 49.486 101.542 51.4441H98.2407C98.0922 50.4448 97.6398 49.6548 96.8836 49.0742C96.1274 48.48 95.1079 48.1829 93.8251 48.1829C92.4882 48.1829 91.4012 48.453 90.564 48.9932C89.7267 49.5198 89.3081 50.3435 89.3081 51.4643C89.3081 52.207 89.6052 52.7944 90.1994 53.2265C90.7935 53.6451 91.6713 53.9962 92.8326 54.2798L97.0254 55.3331C98.3083 55.6707 99.3075 56.15 100.023 56.7712C100.739 57.3924 101.239 58.0743 101.522 58.817C101.806 59.5597 101.947 60.2754 101.947 60.9641C101.947 62.8951 101.239 64.4142 99.8207 65.5215C98.4028 66.6288 96.4245 67.1825 93.8858 67.1825ZM114.839 45.4282C117.094 45.4282 118.991 46.0696 120.53 47.3525C122.07 48.6218 122.981 50.3233 123.265 52.4568H119.943C119.754 51.363 119.221 50.4245 118.343 49.6413C117.465 48.8446 116.304 48.4463 114.859 48.4463C113.077 48.4463 111.618 49.0944 110.484 50.3908C109.363 51.6871 108.803 53.6721 108.803 56.3458C108.803 58.763 109.316 60.7007 110.342 62.1591C111.382 63.604 112.908 64.3264 114.92 64.3264C116.351 64.3264 117.506 63.9213 118.383 63.1111C119.261 62.3009 119.788 61.3692 119.963 60.3159H123.224C122.954 62.4224 122.043 64.0969 120.49 65.3392C118.951 66.568 117.067 67.1825 114.839 67.1825C112.948 67.1825 111.281 66.7706 109.836 65.9469C108.391 65.1232 107.256 63.9078 106.433 62.3009C105.609 60.694 105.197 58.7225 105.197 56.3864C105.197 54.2123 105.569 52.3015 106.311 50.6541C107.067 49.0067 108.161 47.7238 109.593 46.8056C111.037 45.8873 112.786 45.4282 114.839 45.4282ZM135.968 67.1825C133.064 67.1825 130.735 66.2575 128.979 64.4075C127.224 62.5575 126.346 59.8838 126.346 56.3864C126.346 54.1988 126.718 52.2813 127.46 50.6338C128.203 48.9864 129.29 47.7103 130.721 46.8056C132.153 45.8873 133.902 45.4282 135.968 45.4282C138.857 45.4282 141.166 46.3735 142.895 48.264C144.623 50.1545 145.488 52.8619 145.488 56.3864C145.488 58.5199 145.123 60.3969 144.394 62.0173C143.678 63.6378 142.611 64.9071 141.193 65.8253C139.789 66.7301 138.047 67.1825 135.968 67.1825ZM135.968 64.2252C137.845 64.2252 139.283 63.523 140.282 62.1186C141.281 60.7007 141.781 58.763 141.781 56.3053C141.781 54.8064 141.578 53.4628 141.173 52.2745C140.782 51.0727 140.16 50.1207 139.31 49.4185C138.459 48.7163 137.345 48.3652 135.968 48.3652C134.064 48.3652 132.605 49.0674 131.592 50.4718C130.58 51.8627 130.073 53.8072 130.073 56.3053C130.073 57.7772 130.276 59.1141 130.681 60.3159C131.086 61.5177 131.721 62.4697 132.585 63.1719C133.449 63.8741 134.577 64.2252 135.968 64.2252ZM165.475 45.8333L157.919 66.7773H154.516L146.941 45.8333H150.465L156.036 62.0781H156.38L161.97 45.8333H165.475ZM170.716 57.1763C170.716 58.4997 170.932 59.7015 171.364 60.7818C171.809 61.8485 172.478 62.6993 173.369 63.3339C174.274 63.9686 175.401 64.2859 176.752 64.2859C178.089 64.2859 179.236 63.9754 180.195 63.3542C181.167 62.733 181.789 61.835 182.059 60.6602H185.603C185.347 62.0781 184.78 63.2732 183.902 64.2454C183.024 65.2177 181.964 65.9536 180.722 66.4533C179.479 66.9394 178.183 67.1825 176.833 67.1825C174.875 67.1825 173.153 66.7571 171.668 65.9064C170.182 65.0556 169.021 63.8336 168.184 62.2401C167.346 60.6467 166.928 58.736 166.928 56.5079C166.928 54.3068 167.306 52.3758 168.062 50.7149C168.818 49.0539 169.912 47.7576 171.344 46.8258C172.788 45.8941 174.524 45.4282 176.549 45.4282C179.506 45.4282 181.775 46.3667 183.355 48.2437C184.935 50.1072 185.725 52.6256 185.725 55.7989V57.1763H170.716ZM170.736 54.6444H182.119C182.119 52.8484 181.66 51.336 180.742 50.1072C179.824 48.8784 178.419 48.264 176.529 48.264C175.219 48.264 174.132 48.5813 173.268 49.216C172.404 49.8371 171.762 50.6406 171.344 51.6263C170.925 52.5986 170.722 53.6046 170.736 54.6444ZM190.18 66.7773V45.8333H193.745V49.8641C194.272 48.3652 195.102 47.2512 196.236 46.522C197.384 45.7928 198.62 45.4282 199.943 45.4282C200.254 45.4282 200.551 45.4485 200.834 45.489C201.131 45.5295 201.368 45.597 201.543 45.6915V49.3172C201.341 49.2227 201.077 49.1619 200.753 49.1349C200.443 49.0944 200.179 49.0742 199.963 49.0742C198.302 48.9661 196.878 49.2835 195.689 50.0262C194.501 50.7689 193.907 52.0112 193.907 53.7532V66.7773H190.18ZM60.0167 89.5678H55.2972V102.592C55.2972 103.713 55.4727 104.401 55.8238 104.658C56.1884 104.901 56.8636 105.023 57.8494 105.023H60.1382V107.534C59.8682 107.629 59.4766 107.71 58.9634 107.777C58.4503 107.845 57.8089 107.879 57.0392 107.879C54.8651 107.879 53.4 107.44 52.6438 106.562C51.9011 105.684 51.5297 104.401 51.5297 102.714V89.5678H48.1268V86.8333H51.631L52.5425 80.7365H55.2972V86.8131H60.0167V89.5678ZM64.7096 107.777V77.6779H68.3556V89.9121C68.8822 89.0479 69.6857 88.2782 70.766 87.603C71.8462 86.9143 73.2236 86.57 74.898 86.57C76.2619 86.57 77.4975 86.8266 78.6048 87.3397C79.7121 87.8393 80.5898 88.555 81.238 89.4868C81.8861 90.4185 82.2102 91.5258 82.2102 92.8086V107.777H78.463V93.5581C78.463 92.3023 78.0309 91.3368 77.1666 90.6616C76.3159 89.9729 75.2019 89.6286 73.8245 89.6286C72.8793 89.6286 71.9948 89.7838 71.1711 90.0944C70.3608 90.3915 69.6992 90.8506 69.186 91.4718C68.6864 92.0795 68.4366 92.8559 68.4366 93.8012V107.777H64.7096ZM90.0357 98.1763C90.0357 99.4997 90.2518 100.701 90.6839 101.782C91.1295 102.849 91.798 103.699 92.6892 104.334C93.5939 104.969 94.7215 105.286 96.0718 105.286C97.4087 105.286 98.5565 104.975 99.5152 104.354C100.487 103.733 101.109 102.835 101.379 101.66H104.923C104.667 103.078 104.1 104.273 103.222 105.245C102.344 106.218 101.284 106.954 100.042 107.453C98.7996 107.939 97.5032 108.182 96.1529 108.182C94.1948 108.182 92.4731 107.757 90.9877 106.906C89.5024 106.056 88.341 104.834 87.5038 103.24C86.6666 101.647 86.248 99.736 86.248 97.5079C86.248 95.3068 86.6261 93.3758 87.3823 91.7149C88.1385 90.0539 89.2323 88.7576 90.6637 87.8258C92.1085 86.8941 93.8437 86.4282 95.8693 86.4282C98.8266 86.4282 101.095 87.3667 102.675 89.2437C104.255 91.1072 105.045 93.6256 105.045 96.7989V98.1763H90.0357ZM90.056 95.6444H101.439C101.439 93.8484 100.98 92.336 100.062 91.1072C99.1439 89.8784 97.7395 89.264 95.849 89.264C94.5392 89.264 93.4521 89.5813 92.5879 90.216C91.7237 90.8371 91.0823 91.6406 90.6637 92.6263C90.245 93.5986 90.0425 94.6046 90.056 95.6444ZM118.641 107.777V78.4881H128.546C130.639 78.4881 132.502 78.8392 134.136 79.5414C135.77 80.2436 137.053 81.2834 137.985 82.6607C138.93 84.0381 139.402 85.7328 139.402 87.7448C139.402 89.6893 138.964 91.3503 138.086 92.7276C137.222 94.0915 136.013 95.138 134.46 95.8672C132.907 96.5829 131.104 96.9407 129.052 96.9407H122.489V107.777H118.641ZM122.469 93.7809H128.971C130.969 93.7809 132.597 93.2205 133.852 92.0997C135.122 90.9789 135.756 89.453 135.756 87.522C135.756 85.5775 135.108 84.1056 133.812 83.1063C132.516 82.1071 130.841 81.6074 128.789 81.6074H122.469V93.7809ZM142.976 107.777V86.8333H146.541V90.8641C147.068 89.3652 147.898 88.2512 149.033 87.522C150.18 86.7928 151.416 86.4282 152.739 86.4282C153.05 86.4282 153.347 86.4485 153.631 86.489C153.928 86.5295 154.164 86.597 154.339 86.6915V90.3172C154.137 90.2227 153.874 90.1619 153.55 90.1349C153.239 90.0944 152.976 90.0742 152.76 90.0742C151.099 89.9661 149.674 90.2835 148.486 91.0262C147.297 91.7689 146.703 93.0112 146.703 94.7532V107.777H142.976ZM165.844 108.182C162.94 108.182 160.611 107.257 158.855 105.407C157.1 103.557 156.222 100.884 156.222 97.3864C156.222 95.1988 156.594 93.2813 157.336 91.6338C158.079 89.9864 159.166 88.7103 160.597 87.8056C162.029 86.8873 163.778 86.4282 165.844 86.4282C168.733 86.4282 171.042 87.3735 172.771 89.264C174.499 91.1545 175.364 93.8619 175.364 97.3864C175.364 99.5199 174.999 101.397 174.27 103.017C173.554 104.638 172.487 105.907 171.069 106.825C169.665 107.73 167.923 108.182 165.844 108.182ZM165.844 105.225C167.721 105.225 169.159 104.523 170.158 103.119C171.157 101.701 171.657 99.763 171.657 97.3053C171.657 95.8064 171.454 94.4628 171.049 93.2745C170.658 92.0727 170.036 91.1207 169.186 90.4185C168.335 89.7163 167.221 89.3652 165.844 89.3652C163.94 89.3652 162.481 90.0674 161.468 91.4718C160.456 92.8627 159.949 94.8072 159.949 97.3053C159.949 98.7772 160.152 100.114 160.557 101.316C160.962 102.518 161.597 103.47 162.461 104.172C163.325 104.874 164.453 105.225 165.844 105.225ZM184.014 78.5084V82.3974H180.044V78.5084H184.014ZM183.912 108.709C183.912 110.667 183.487 112.119 182.636 113.064C181.799 114.023 180.314 114.502 178.18 114.502C177.032 114.502 176.31 114.421 176.013 114.259C175.702 114.097 175.547 114.016 175.547 114.016V111.525L177.613 111.423C178.558 111.356 179.22 111.106 179.598 110.674C179.976 110.255 180.165 109.56 180.165 108.588V86.8333H183.912V108.709ZM192.205 98.1763C192.205 99.4997 192.421 100.701 192.853 101.782C193.298 102.849 193.967 103.699 194.858 104.334C195.763 104.969 196.89 105.286 198.241 105.286C199.578 105.286 200.725 104.975 201.684 104.354C202.656 103.733 203.278 102.835 203.548 101.66H207.092C206.836 103.078 206.269 104.273 205.391 105.245C204.513 106.218 203.453 106.954 202.211 107.453C200.968 107.939 199.672 108.182 198.322 108.182C196.364 108.182 194.642 107.757 193.157 106.906C191.671 106.056 190.51 104.834 189.673 103.24C188.835 101.647 188.417 99.736 188.417 97.5079C188.417 95.3068 188.795 93.3758 189.551 91.7149C190.307 90.0539 191.401 88.7576 192.833 87.8258C194.277 86.8941 196.013 86.4282 198.038 86.4282C200.995 86.4282 203.264 87.3667 204.844 89.2437C206.424 91.1072 207.214 93.6256 207.214 96.7989V98.1763H192.205ZM192.225 95.6444H203.608C203.608 93.8484 203.149 92.336 202.231 91.1072C201.313 89.8784 199.908 89.264 198.018 89.264C196.708 89.264 195.621 89.5813 194.757 90.216C193.893 90.8371 193.251 91.6406 192.833 92.6263C192.414 93.5986 192.211 94.6046 192.225 95.6444ZM220.014 86.4282C222.269 86.4282 224.167 87.0696 225.706 88.3525C227.245 89.6218 228.157 91.3233 228.44 93.4568H225.119C224.93 92.363 224.396 91.4245 223.518 90.6413C222.641 89.8446 221.479 89.4463 220.035 89.4463C218.252 89.4463 216.794 90.0944 215.659 91.3908C214.539 92.6871 213.978 94.6721 213.978 97.3458C213.978 99.763 214.491 101.701 215.518 103.159C216.557 104.604 218.083 105.326 220.095 105.326C221.527 105.326 222.681 104.921 223.559 104.111C224.437 103.301 224.963 102.369 225.139 101.316H228.4C228.13 103.422 227.218 105.097 225.666 106.339C224.126 107.568 222.242 108.182 220.014 108.182C218.124 108.182 216.456 107.771 215.011 106.947C213.566 106.123 212.432 104.908 211.608 103.301C210.785 101.694 210.373 99.7225 210.373 97.3864C210.373 95.2123 210.744 93.3015 211.487 91.6541C212.243 90.0067 213.337 88.7238 214.768 87.8056C216.213 86.8873 217.962 86.4282 220.014 86.4282ZM242.786 89.5678H238.067V102.592C238.067 103.713 238.242 104.401 238.593 104.658C238.958 104.901 239.633 105.023 240.619 105.023H242.908V107.534C242.638 107.629 242.246 107.71 241.733 107.777C241.22 107.845 240.579 107.879 239.809 107.879C237.635 107.879 236.17 107.44 235.413 106.562C234.671 105.684 234.299 104.401 234.299 102.714V89.5678H230.896V86.8333H234.401L235.312 80.7365H238.067V86.8131H242.786V89.5678Z" fill="white"/>
<path d="M253 81.5273L273.59 93.7487L253 105.97" stroke="white" stroke-width="4.11792" stroke-linejoin="bevel"/>
</svg>
