<svg width="218" height="112" viewBox="0 0 218 112" fill="none" xmlns="http://www.w3.org/2000/svg">
<path fill-rule="evenodd" clip-rule="evenodd" d="M75.9047 6.87038e-05C95.9669 0.0326185 109.445 12.3784 124.117 21.5983C139.648 31.3591 158.74 39.9376 161.963 54.0822C165.58 69.9553 158.507 87.0263 141.605 98.3494C124.739 109.649 99.6806 112.179 75.9047 111.736C52.8952 111.308 28.8708 107.655 13.7363 95.9696C-0.711642 84.8143 -1.47238 68.7751 1.2332 54.0822C3.5836 41.3182 14.4579 30.8586 27.4601 21.4415C41.1405 11.5332 55.8197 -0.0325181 75.9047 6.87038e-05Z" fill="#363753"/>
<path d="M46.0748 78.5195V49.2303H64.5477L64.5274 52.5319H49.8423V62.0924H63.069V65.3738H49.8221V75.1369L64.9325 75.1774V78.5195H46.0748ZM87.8151 78.5195H83.7437L77.6469 70.3161L71.5905 78.5195H67.4787L75.5606 67.6424L68.1269 57.5755H72.2184L77.6469 64.9282L83.0956 57.5755H87.1871L79.7332 67.6424L87.8151 78.5195ZM91.4803 85.0418V57.5755H95.2073L95.2478 61.2215C95.5719 60.6543 96.0243 60.0602 96.6049 59.439C97.1991 58.8043 97.9485 58.2709 98.8533 57.8388C99.758 57.3932 100.852 57.1704 102.135 57.1704C104.633 57.1704 106.672 58.0346 108.252 59.7631C109.832 61.4915 110.622 64.1585 110.622 67.7639C110.622 71.3559 109.845 74.1174 108.292 76.0484C106.739 77.9659 104.586 78.9246 101.831 78.9246C100.588 78.9246 99.5284 78.7018 98.6507 78.2562C97.7865 77.7971 97.0776 77.2434 96.5239 76.5953C95.9703 75.9471 95.5449 75.3259 95.2478 74.7318V85.0418H91.4803ZM101.122 76.0079C102.85 76.0079 104.261 75.3529 105.355 74.0431C106.449 72.7198 106.996 70.6672 106.996 67.8855C106.996 65.5089 106.496 63.6184 105.497 62.214C104.498 60.7961 103.039 60.0872 101.122 60.0872C99.1774 60.0872 97.7055 60.8096 96.7062 62.2545C95.7069 63.6994 95.2073 65.5764 95.2073 67.8855C95.2073 69.3844 95.4301 70.7482 95.8757 71.9771C96.3214 73.2059 96.983 74.1849 97.8608 74.9141C98.7385 75.6433 99.8255 76.0079 101.122 76.0079ZM120.132 78.7829C118.619 78.7829 117.485 78.5195 116.729 77.9929C115.972 77.4527 115.466 76.7573 115.209 75.9066C114.966 75.0424 114.845 74.1174 114.845 73.1316V48.4201H118.531V72.767C118.531 73.8338 118.734 74.6305 119.139 75.1571C119.558 75.6703 120.138 75.9539 120.881 76.0079L122.015 76.0281V78.4588C121.34 78.6748 120.712 78.7829 120.132 78.7829ZM134.191 78.9246C131.288 78.9246 128.959 77.9996 127.203 76.1497C125.448 74.2997 124.57 71.626 124.57 68.1285C124.57 65.941 124.941 64.0235 125.684 62.376C126.427 60.7286 127.514 59.4525 128.945 58.5478C130.376 57.6295 132.125 57.1704 134.191 57.1704C137.081 57.1704 139.39 58.1157 141.119 60.0061C142.847 61.8966 143.711 64.6041 143.711 68.1285C143.711 70.2621 143.347 72.1391 142.617 73.7595C141.902 75.38 140.835 76.6493 139.417 77.5675C138.013 78.4723 136.271 78.9246 134.191 78.9246ZM134.191 75.9674C136.068 75.9674 137.506 75.2652 138.506 73.8608C139.505 72.4429 140.005 70.5052 140.005 68.0475C140.005 66.5486 139.802 65.205 139.397 64.0167C139.005 62.8149 138.384 61.8629 137.533 61.1607C136.683 60.4585 135.569 60.1074 134.191 60.1074C132.287 60.1074 130.829 60.8096 129.816 62.214C128.803 63.6048 128.297 65.5494 128.297 68.0475C128.297 69.5194 128.499 70.8563 128.905 72.0581C129.31 73.2599 129.944 74.2119 130.809 74.9141C131.673 75.6163 132.8 75.9674 134.191 75.9674ZM147.925 78.5195V57.5755H151.49V61.6063C152.017 60.1074 152.847 58.9934 153.982 58.2642C155.129 57.535 156.365 57.1704 157.688 57.1704C157.999 57.1704 158.296 57.1907 158.58 57.2312C158.877 57.2717 159.113 57.3392 159.289 57.4337V61.0594C159.086 60.9649 158.823 60.9041 158.499 60.8771C158.188 60.8366 157.925 60.8164 157.709 60.8164C156.048 60.7083 154.623 61.0257 153.435 61.7684C152.246 62.5111 151.652 63.7534 151.652 65.4953V78.5195H147.925ZM165.141 68.9185C165.141 70.2418 165.357 71.4437 165.79 72.524C166.235 73.5907 166.904 74.4415 167.795 75.0761C168.7 75.7108 169.827 76.0281 171.178 76.0281C172.514 76.0281 173.662 75.7175 174.621 75.0964C175.593 74.4752 176.214 73.5772 176.484 72.4024H180.029C179.773 73.8203 179.205 75.0154 178.328 75.9876C177.45 76.9599 176.39 77.6958 175.148 78.1954C173.905 78.6816 172.609 78.9246 171.259 78.9246C169.301 78.9246 167.579 78.4993 166.093 77.6486C164.608 76.7978 163.447 75.5758 162.609 73.9823C161.772 72.3889 161.354 70.4782 161.354 68.2501C161.354 66.049 161.732 64.118 162.488 62.457C163.244 60.7961 164.338 59.4998 165.769 58.568C167.214 57.6363 168.949 57.1704 170.975 57.1704C173.932 57.1704 176.201 58.1089 177.781 59.9859C179.361 61.8494 180.151 64.3678 180.151 67.5411V68.9185H165.141ZM165.162 66.3866H176.545C176.545 64.5906 176.086 63.0782 175.168 61.8494C174.25 60.6206 172.845 60.0061 170.955 60.0061C169.645 60.0061 168.558 60.3235 167.694 60.9582C166.829 61.5793 166.188 62.3828 165.769 63.3685C165.351 64.3408 165.148 65.3468 165.162 66.3866Z" fill="white"/>
<path d="M195.41 49.8262L216 64.2389L195.41 78.6516" stroke="white" stroke-width="4.11792" stroke-linejoin="bevel"/>
</svg>
