<svg width="212" height="221" viewBox="0 0 212 221" fill="none" xmlns="http://www.w3.org/2000/svg">
<path d="M173.82 189.636C130.981 203.335 121.295 177.616 108.482 167.172C112.273 150.534 121.071 122.781 125.931 144.873C130.792 166.964 145.452 187.881 173.82 189.636Z" fill="#5CBF9F"/>
<path fill-rule="evenodd" clip-rule="evenodd" d="M122.709 21.7944C148.427 28.6062 166.656 49.3248 177.658 72.4351C188.504 95.2177 192.992 121.636 180.355 142.887C168.232 163.274 142.302 170.078 117.604 173.428C197.502 196 70.1503 174.618 51.7332 160.334C32.9892 145.796 24.4267 123.352 23.9183 100.767C23.3858 77.1066 30.169 53.3985 48.9878 38.355C69.1183 22.2629 96.7372 14.9154 122.709 21.7944Z" fill="#5CBF9F"/>
</svg>
