<svg width="1440" height="3991" viewBox="0 0 1440 3991" fill="none" xmlns="http://www.w3.org/2000/svg">
<path d="M-27.6933 3902.74C92.6048 3923.12 270.127 3936.54 471.064 3886.65C998.427 3755.73 1358.39 3270.44 1460.51 2800.64C1490.57 2662.4 1592.83 2192.09 1307.66 1851.37C1148.36 1661.04 818.727 1452.14 575.605 1577.86C453.082 1641.21 360.718 1785.25 366.453 1923.77C378.734 2220.98 842.745 2494.82 1187 2406.45C1672.08 2281.94 1832.04 1460.7 1630.63 1271.88C1569.13 1214.23 1503.83 1152.66 1170.05 1241.55C848.607 1327.15 649.095 1154.66 475.466 1209.01C285.212 1268.53 221.535 1505.5 91.6547 1571.65C53.5829 1591.03 7.80641 1587.19 -27.0213 1562.45C-50.019 1546.07 -67.0741 1522.67 -75.6185 1495.76C-84.1629 1468.86 -83.7342 1439.9 -74.3967 1413.26C115.592 868.792 1117.95 469.398 1476.28 377.868C1476.28 377.868 1403.49 312.175 1288.25 258.716C1095.62 169.353 909.388 204.76 845.56 212.986C665.316 236.216 384.678 224.375 -51.8271 65.4377" stroke="#363851" stroke-width="139.033" stroke-linejoin="bevel"/>
<path d="M1692.19 617.073C1401.78 641.763 1247.57 715.903 1015.68 898.708C1461.1 788.64 1720.52 923.397 1696.12 1134.25" stroke="#363851" stroke-width="139.033" stroke-linejoin="bevel"/>
<path d="M-523.125 3756.9L525.414 3071.99C581.305 2930.85 470.959 2779.1 319.344 2788.61L-319.372 2828.73" stroke="#363851" stroke-width="139.033" stroke-linejoin="bevel"/>
</svg>
